<svg xmlns="http://www.w3.org/2000/svg" width="24" height="24" viewBox="0 0 24 24" aria-hidden="true">
  <defs>
    <linearGradient id="bg" x1="0%" y1="0%" x2="100%" y2="100%">
      <stop offset="0%" stop-color="#3b82f6"/>
      <stop offset="100%" stop-color="#4f46e5"/>
    </linearGradient>
  </defs>
  <rect x="0" y="0" width="24" height="24" rx="4" ry="4" fill="url(#bg)"/>
  <g stroke="#ffffff" stroke-width="2" stroke-linecap="round" stroke-linejoin="round" fill="none" transform="translate(3,3) scale(0.85)">
    <path d="M10 5v14"/>
    <path d="M1 16a1 1 0 0 1-1-1V2a1 1 0 0 1 1-1h5a4 4 0 0 1 4 4 4 4 0 0 1 4-4h5a1 1 0 0 1 1 1v13a1 1 0 0 1-1 1h-6a3 3 0 0 0-3 3 3 3 0 0 0-3-3z"/>
  </g>
</svg>

